<svg width="26" height="20" viewBox="0 0 26 20" fill="none" xmlns="http://www.w3.org/2000/svg">
<g clip-path="url(#clip0_497_4)">
<rect x="3" width="20" height="20" fill="white"/>
<path d="M1.77273 19.9999H5.90909V9.69682L0 5.15137V18.1817C0 19.1877 0.794773 19.9999 1.77273 19.9999Z" fill="#4285F4"/>
<path d="M20.0918 19.9999H24.2282C25.2091 19.9999 26.0009 19.1847 26.0009 18.1817V5.15137L20.0918 9.69682" fill="#34A853"/>
<path d="M20.0918 1.81846V9.69725L26.0009 5.15179V2.72755C26.0009 0.479063 23.4984 -0.802755 21.7463 0.54573" fill="#FBBC04"/>
<path d="M5.9082 9.69715V1.81836L12.9991 7.2729L20.09 1.81836V9.69715L12.9991 15.1517" fill="#EA4335"/>
<path d="M0 2.72755V5.15179L5.90909 9.69725V1.81846L4.25455 0.54573C2.49955 -0.802755 0 0.479063 0 2.72755Z" fill="#C5221F"/>
</g>
<defs>
<clipPath id="clip0_497_4">
<rect width="26" height="20" fill="white"/>
</clipPath>
</defs>
</svg>
