<svg width="26" height="26" viewBox="0 0 26 26" fill="none" xmlns="http://www.w3.org/2000/svg">
<rect x="2" y="4" width="22" height="18" fill="white"/>
<path d="M22.7876 0.953301L3.24513 1.00392C2.00494 1.00714 0.992863 2.02447 0.996076 3.26467L1.0467 22.8071C1.04991 24.0473 2.06725 25.0594 3.30744 25.0562L22.8499 25.0056C24.0901 25.0024 25.1022 23.985 25.099 22.7448L25.0483 3.20236C25.0451 1.96216 24.0278 0.950088 22.7876 0.953301ZM10.0605 20.5289L7.05393 20.5367L7.02667 10.0138L10.0332 10.006L10.0605 20.5289ZM8.52604 8.50663C7.69473 8.50878 7.02103 7.83856 7.01888 7.00726C7.01672 6.17595 7.68694 5.50225 8.51825 5.5001C9.34956 5.49794 10.0233 6.16816 10.0254 6.99947C10.0276 7.83077 9.35735 8.50448 8.52604 8.50663ZM20.5833 20.5016L17.5768 20.5094L17.5612 14.4963C17.5591 13.665 16.8854 12.9948 16.0541 12.997C15.2227 12.9991 14.5525 13.6728 14.5547 14.5041L14.5703 20.5172L11.5637 20.525L11.5365 10.0021L14.543 9.99432L14.5478 11.8599C15.165 11.0074 16.1124 9.99025 17.1737 9.9875C19.0438 9.98266 20.5604 11.6609 20.5658 13.7369L20.5833 20.5016Z" fill="#0B67CA"/>
</svg>
